<svg width="21" height="21" viewBox="0 0 21 21" fill="none" xmlns="http://www.w3.org/2000/svg">
<path id="&#208;&#151;&#208;&#178;&#208;&#181;&#208;&#183;&#208;&#180;&#208;&#190;&#209;&#135;&#208;&#186;&#208;&#176;" d="M8.82042 1.598C9.60843 0.379102 11.3916 0.3791 12.1796 1.598L14.3568 4.96571C14.6266 5.38314 15.0423 5.68513 15.5227 5.81279L19.3983 6.84274C20.8011 7.21552 21.3521 8.91139 20.4364 10.0375L17.9063 13.1488C17.5927 13.5344 17.4339 14.0231 17.4609 14.5194L17.6791 18.5237C17.758 19.9729 16.3154 21.021 14.9614 20.4981L11.2206 19.0533C10.7569 18.8742 10.2431 18.8742 9.77943 19.0533L6.03856 20.4981C4.6846 21.021 3.242 19.9729 3.32094 18.5237L3.53905 14.5194C3.56609 14.0231 3.40732 13.5344 3.09371 13.1488L0.563619 10.0375C-0.352114 8.91139 0.198908 7.21552 1.60165 6.84274L5.47732 5.81279C5.95772 5.68513 6.37337 5.38314 6.64324 4.96571L8.82042 1.598Z" fill="#FFE500"/>
</svg>
